# xmcd CD database file
#
# Track frame offsets:
#	150
#	12362
#	26381
#	30883
#	56377
#	69041
#	84541
#	95586
#	119533
#	121745
#	140108
#	155787
#	172097
#	172997
#	196955
#	211771
#	225608
#	230172
#	258535
#	282077
#
# Disc length: 4120 seconds
#
# Revision: 0
# Processed by: cddbd v1.5.2PL0 Copyright (c) Steve Scherf et al.
# Submitted via: CDex 1.51
#
DISCID=0d101614
DTITLE=Jake Shimabukuro - Live
DYEAR=2009
DGENRE=Jazz
TTITLE0=Trapped
TTITLE1=Piano-Forte
TTITLE2=Bach Two-Part Invention No 4 in D Minor
TTITLE3=Me and Shirley T
TTITLE4=Spain
TTITLE5=Five Dollars Unleaded
TTITLE6=Let's Dance-Prelude
TTITLE7=Let's Dance
TTITLE8=Talk Story I "Michael Jackson on Ukulele..."
TTITLE9=Thriller
TTITLE10=Orange World
TTITLE11=Wes on Four
TTITLE12=Talk Story II "Thirteen-String Japanese Koto..."
TTITLE13=Sakura Sakura
TTITLE14=Dragon
TTITLE15=Yeah
TTITLE16=Talk Story III "From Ukulele Disco to YouTube..."
TTITLE17=While My Guitar Gently Weeps
TTITLE18=3rd Stream
TTITLE19=Blue Roses Falling (Hanahour)
EXTD=YEAR: 2009
EXTT0=
EXTT1=
EXTT2=
EXTT3=
EXTT4=
EXTT5=
EXTT6=
EXTT7=
EXTT8=
EXTT9=
EXTT10=
EXTT11=
EXTT12=
EXTT13=
EXTT14=
EXTT15=
EXTT16=
EXTT17=
EXTT18=
EXTT19=
PLAYORDER=
